<svg id="svg" version="1.1" viewBox="0 0 300 259.16824196597344" width="300" height="259.16824196597344" xmlns="http://www.w3.org/2000/svg"><svg xmlns="http://www.w3.org/2000/svg"><defs><clipPath id="clip-1"><rect x="0" y="0" transform="scale(0.14648,0.14651)" width="2048" height="1769" fill="none"/></clipPath><linearGradient x1="34.72178" y1="221.98221" x2="205.65088" y2="76.75585" gradientUnits="userSpaceOnUse" id="color-1"><stop offset="0" stop-color="#0b6040"/><stop offset="1" stop-color="#4ca868"/></linearGradient><linearGradient x1="166.23633" y1="98.51323" x2="220.26709" y2="47.75962" gradientUnits="userSpaceOnUse" id="color-2"><stop offset="0" stop-color="#409c63"/><stop offset="1" stop-color="#56b971"/></linearGradient></defs><g clip-path="url(#clip-1)" fill="none" fill-rule="nonzero" stroke="none" stroke-width="1" stroke-linecap="butt" stroke-linejoin="miter" stroke-miterlimit="10" stroke-dasharray="" stroke-dashoffset="0" font-family="none" font-weight="none" font-size="none" text-anchor="none" style="mix-blend-mode: normal"><path d="M0,0h300v259.16824h-300z" fill="#ffffff"/><path d="M47.94902,36.60645c-3.43301,-1.78165 -6.1541,-3.91756 -7.78271,-7.51207c-3.04058,-6.71054 0.36167,-14.66457 7.00854,-17.60718c3.28931,-1.42584 7.01162,-1.47891 10.34019,-0.14747c4.27192,1.69441 5.84663,3.98445 7.59126,7.95797c7.85391,-0.20892 16.07417,-0.10197 23.95151,-0.07882l28.97432,-0.00293l13.37798,-0.00337c2.31284,-0.00073 4.67358,0.01509 6.98701,-0.02915c0.66475,-0.0126 0.67222,-0.08585 1.15342,-0.42252c0.31831,-2.13078 2.57827,-4.52781 4.24878,-5.78108c5.63818,-4.22942 14.2207,-3.12359 18.47754,2.53085c0.92432,1.22654 1.84277,3.53283 2.35254,5.05297c2.34229,0.14782 7.96875,1.3896 10.34326,1.99306c17.13135,4.41787 32.83594,13.17773 45.59619,25.43424c16.21729,15.61133 27.1084,36.06673 30.68994,58.31915c4.0166,1.04561 7.34766,2.58641 9.49658,6.3012c1.86328,3.22224 2.39941,7.0998 1.46338,10.70413c-0.98145,3.77838 -4.59229,8.27024 -8.53125,9.16831l-1.59229,0.7548c-0.13037,1.14172 -0.41602,4.01879 -0.6709,5.06133l-1.25977,6.13492c-3.21387,15.16537 -7.94824,25.03252 -15.94482,38.04514c1.05469,2.44518 2.75537,5.513 3.96094,7.98748c3.08789,6.39643 6.25049,12.75623 9.48633,19.07795c0.70752,-0.02051 1.46191,-0.063 2.1665,-0.03663c11.57959,0.45417 17.3584,14.63297 9.0498,22.80798c-7.40771,7.28865 -19.68604,4.10655 -22.59668,-5.68002c-0.66797,-2.24739 -0.5376,-3.95858 -0.4248,-6.23088c-2.16211,-1.43722 -6.97412,-3.9996 -9.37793,-5.36796c-4.89111,-2.78507 -10.27295,-6.05068 -15.22998,-8.59987c-1.17041,0.70469 -2.42432,1.73463 -3.57275,2.55213c-15.79834,11.2443 -35.44189,17.50008 -54.79834,17.98648c-3.96533,0.10109 -7.96011,0.0044 -11.90728,0.01026l-22.00737,0.0337l-53.61709,-0.07179c-1.56387,3.79596 -2.87856,5.88952 -6.57715,7.86735c-10.52183,5.62728 -22.5731,-4.95775 -18.9999,-16.12586c1.31631,-4.11241 4.37827,-6.67626 8.13032,-8.5486c0.09551,-1.86795 0.01187,-4.44205 0.01172,-6.35248l0.00952,-11.9358l0.00703,-36.70695z" fill="url(#color-1)"/><path d="M139.55054,18.76091c0.31831,-2.13078 2.57827,-4.52781 4.24878,-5.78108c5.63818,-4.22942 14.2207,-3.12359 18.47754,2.53085c0.92432,1.22654 1.84277,3.53283 2.35254,5.05297c2.34229,0.14782 7.96875,1.3896 10.34326,1.99306c17.13135,4.41787 32.83594,13.17773 45.59619,25.43424c16.21729,15.61133 27.1084,36.06673 30.68994,58.31915c4.0166,1.04561 7.34766,2.58641 9.49658,6.3012c1.86328,3.22224 2.39941,7.0998 1.46338,10.70413c-0.98145,3.77838 -4.59229,8.27024 -8.53125,9.16831c-0.62256,-0.32832 -0.42187,0.19148 -0.92432,-0.04952c-1.64355,-2.57498 -5.11816,-4.06523 -7.52051,-5.93523c-0.75293,-0.58675 -2.32178,-1.15769 -2.86523,-1.86795c-1.86182,-2.43243 -1.92041,-5.47022 -5.86816,-3.27484c-0.2915,0.16247 -0.28711,0.2621 -0.63574,0.28144l-0.13477,0.5053c-13.45605,7.50211 -27.9624,14.66388 -41.64111,21.80529l-16.91748,8.84967c-4.08838,2.17707 -9.36768,5.11597 -13.5249,7.05571c-5.86816,-4.96654 -14.21924,-5.15553 -19.63315,0.94057c-2.65532,2.99018 -3.66313,7.11431 -2.93848,11.05677c-6.17695,3.06197 -12.11543,6.31292 -18.18472,9.5463l-17.49551,9.1522l-27.54771,14.41175c-4.82388,2.52282 -9.86118,5.031 -14.61387,7.64759c2.20562,-5.43828 6.12568,-12.56285 8.78921,-17.99088l4.03271,-8.19259c0.28696,-0.5743 1.46118,-3.01069 1.75356,-3.43409c0.6498,-1.4841 1.78022,-3.5762 2.53271,-5.07788c5.26245,-10.17481 10.17422,-20.92245 15.37471,-31.17051c3.09829,-6.06547 6.12568,-12.16772 9.08145,-18.30469c0.99082,-2.04478 3.03647,-5.86081 3.73345,-7.85914c4.13379,0.02242 7.63638,-0.25609 10.92056,-3.02754c2.87124,-2.39478 4.64355,-5.85583 4.90869,-9.58556c0.31113,-4.35663 -1.45459,-7.50709 -4.21011,-10.65593c1.03872,-1.86399 2.00962,-4.09981 2.99194,-6.0621l8.74336,-17.80672l8.98184,-18.27598c2.04639,-4.11065 4.1042,-7.8001 5.97612,-12.0807c0.43066,-0.72037 1.27734,-2.15671 1.47803,-2.91546c0.44971,-0.82805 1.01367,-2.05093 1.47803,-2.78009c1.17188,0.01406 2.44922,0.05582 3.6123,0.03077c0.4834,0.86292 0.91406,1.65434 1.35498,2.53923l0.35156,0.22767c0.12012,0.34678 0.09668,0.33901 0.36328,0.58368l0.08643,-0.13288c-0.09668,-0.16687 -0.26074,-0.51746 -0.15088,-0.68682c0.52588,-0.2202 0.43066,-0.13376 1.08691,-0.04776c0.60498,-0.46091 0.40283,-0.60038 0.88037,-1.00298c0.15381,-0.15998 1.81787,-0.92767 1.81787,-1.03711c0.00293,-1.3833 2.17529,-0.85838 3.06592,-1.81315c-0.44531,-0.89823 -0.75293,-1.5868 -1.12793,-2.51667c0.82471,-1.0796 1.68896,-2.15803 2.2749,-3.38237c-0.87305,0.30151 -0.83936,1.38477 -1.35059,1.54856c-1.53076,0.4779 -2.31592,-0.16174 -3.78369,0.95023c-1.82959,1.38653 -2.81836,1.35693 -4.85596,1.45172c-2.06982,0.09625 -2.71289,-0.95404 -3.71338,-1.12472c-1.38281,-0.23587 -4.46514,0.68081 -5.87637,0.98818c-1.29771,0.35747 -1.01792,1.08385 -1.75327,1.41173l-0.49307,-0.28305l0.68643,-1.54593l-1.72471,-2.07466c-0.40225,-0.81662 -0.70151,-1.46711 -1.0437,-2.30966l0.2209,-0.05699c0.08364,-0.9599 0.77168,-0.86189 0.67529,-2.97831c-4.06245,-0.23133 -9.346,-0.07091 -13.47275,-0.0819l-26.20327,-0.02974c-3.60674,0.00117 -8.76006,0.17874 -12.22485,-0.0463c2.18701,-0.18372 4.64355,0.10373 6.83716,-0.04395c3.20288,-0.21551 6.26895,-0.04688 9.46128,-0.00161c3.95303,0.05904 7.90693,0.023 11.8582,-0.10812c1.58569,-0.0482 3.49893,0.07941 5.02471,-0.08072l-0.00952,-0.14358c-0.34131,-0.13977 -0.47725,-0.16599 -0.75513,-0.40831c0.26821,-0.81442 0.58301,-0.39161 0.92549,-0.7c-0.28037,-0.28085 -0.29458,-0.30752 -0.5083,-0.64477l0.08657,-0.32436c0.40283,-0.39806 0.27026,-0.39659 0.70269,-0.42399c1.2501,1.37056 1.26064,-0.19764 2.79858,-0.74703c1.11855,-0.39967 2.25732,-0.87127 3.38979,-1.27811l0.07764,-0.37418c0.83921,-0.47878 9.34893,0.13083 10.59097,-0.72388c0.46934,-0.3229 0.47227,-0.68784 0.55957,-1.20618z" fill="#ffffff"/><path d="M139.55054,18.76091c0.31831,-2.13078 2.57827,-4.52781 4.24878,-5.78108c5.63818,-4.22942 14.2207,-3.12359 18.47754,2.53085c0.92432,1.22654 1.84277,3.53283 2.35254,5.05297c2.34229,0.14782 7.96875,1.3896 10.34326,1.99306c17.13135,4.41787 32.83594,13.17773 45.59619,25.43424c16.21729,15.61133 27.1084,36.06673 30.68994,58.31915c4.0166,1.04561 7.34766,2.58641 9.49658,6.3012c1.86328,3.22224 2.39941,7.0998 1.46338,10.70413c-0.98145,3.77838 -4.59229,8.27024 -8.53125,9.16831c-0.62256,-0.32832 -0.42187,0.19148 -0.92432,-0.04952c-1.64355,-2.57498 -5.11816,-4.06523 -7.52051,-5.93523c-0.75293,-0.58675 -2.32178,-1.15769 -2.86523,-1.86795c-1.86182,-2.43243 -1.92041,-5.47022 -5.86816,-3.27484c-0.2915,0.16247 -0.28711,0.2621 -0.63574,0.28144l-0.13477,0.5053c-0.18311,-1.83278 -0.20361,-2.62846 -0.01758,-4.46373c-1.44287,-0.8575 -3.90967,-1.98471 -5.49023,-2.74727l-8.521,-4.16325l-29.95459,-14.66344c4.07227,8.07245 8.04346,16.19604 11.91064,24.36899c1.5835,3.31615 3.17578,6.41694 4.69189,9.78935c-2.37744,1.38653 -4.83984,2.62216 -7.37109,3.69926c-1.48535,-2.1296 -3.60059,-7.08911 -4.86328,-9.62277l-12.04687,-24.58465c-0.8042,-1.65786 -3.67529,-7.88903 -4.47363,-9.01873l-0.14062,-0.19632c-0.66943,-0.94393 -6.37354,-3.34794 -7.76367,-4.05044c-6.84668,-3.44083 -13.72852,-6.81133 -20.64551,-10.11108c-3.81152,-1.83425 -7.62729,-3.54968 -11.37861,-5.5341c0.79233,-1.42462 3.11279,-6.72841 3.69946,-7.3893c1.41592,0.53504 2.7895,1.17615 4.10933,1.91761c1.53809,0.78952 3.64307,1.92948 5.20166,2.52971c2.18701,1.07242 4.46777,1.99247 6.56543,3.18884c0.5625,0.16819 4.12793,1.9245 4.7959,2.26424c2.98828,1.52161 6.5625,3.00776 9.41602,4.68686c-0.44092,-0.9662 -1.00342,-1.90779 -1.45752,-2.88337c-4.21582,-9.05492 -8.92676,-17.86591 -13.11914,-26.93562c-1.27881,-2.76661 -2.94287,-5.48854 -4.11035,-8.26482l0.35156,0.22767c0.12012,0.34678 0.09668,0.33901 0.36328,0.58368l0.08643,-0.13288c-0.09668,-0.16687 -0.26074,-0.51746 -0.15088,-0.68682c0.52588,-0.2202 0.43066,-0.13376 1.08691,-0.04776c0.60498,-0.46091 0.40283,-0.60038 0.88037,-1.00298c0.15381,-0.15998 1.81787,-0.92767 1.81787,-1.03711c0.00293,-1.3833 2.17529,-0.85838 3.06592,-1.81315c-0.44531,-0.89823 -0.75293,-1.5868 -1.12793,-2.51667c0.82471,-1.0796 1.68896,-2.15803 2.2749,-3.38237c-0.87305,0.30151 -0.83936,1.38477 -1.35059,1.54856c-1.53076,0.4779 -2.31592,-0.16174 -3.78369,0.95023c-1.82959,1.38653 -2.81836,1.35693 -4.85596,1.45172c-2.06982,0.09625 -2.71289,-0.95404 -3.71338,-1.12472c-1.38281,-0.23587 -4.46514,0.68081 -5.87637,0.98818c-1.29771,0.35747 -1.01792,1.08385 -1.75327,1.41173l-0.49307,-0.28305l0.68643,-1.54593l-1.72471,-2.07466c-0.40225,-0.81662 -0.70151,-1.46711 -1.0437,-2.30966l0.2209,-0.05699c0.08364,-0.9599 0.77168,-0.86189 0.67529,-2.97831c-4.06245,-0.23133 -9.346,-0.07091 -13.47275,-0.0819l-26.20327,-0.02974c-3.60674,0.00117 -8.76006,0.17874 -12.22485,-0.0463c2.18701,-0.18372 4.64355,0.10373 6.83716,-0.04395c3.20288,-0.21551 6.26895,-0.04688 9.46128,-0.00161c3.95303,0.05904 7.90693,0.023 11.8582,-0.10812c1.58569,-0.0482 3.49893,0.07941 5.02471,-0.08072l-0.00952,-0.14358c-0.34131,-0.13977 -0.47725,-0.16599 -0.75513,-0.40831c0.26821,-0.81442 0.58301,-0.39161 0.92549,-0.7c-0.28037,-0.28085 -0.29458,-0.30752 -0.5083,-0.64477l0.08657,-0.32436c0.40283,-0.39806 0.27026,-0.39659 0.70269,-0.42399c1.2501,1.37056 1.26064,-0.19764 2.79858,-0.74703c1.11855,-0.39967 2.25732,-0.87127 3.38979,-1.27811l0.07764,-0.37418c0.83921,-0.47878 9.34893,0.13083 10.59097,-0.72388c0.46934,-0.3229 0.47227,-0.68784 0.55957,-1.20618z" fill="url(#color-2)"/><path d="M164.0625,28.97146c1.42676,0.2643 2.81836,0.53269 4.25684,0.72388c2.16357,0.46384 4.80469,1.28163 6.76465,1.66606c3.25781,1.15285 6.65918,2.02588 9.88184,3.3982c17.45361,7.27649 32.36279,19.55922 42.84668,35.29933c2.39941,3.57547 4.67725,7.21628 6.5332,11.10819c1.81641,3.74717 3.41455,7.59587 4.78711,11.52691c0.33838,0.99917 1.6582,5.71972 1.91309,6.22224c0.36035,1.75895 1.64063,6.73999 2.20166,8.47476c-0.16113,0.36509 -2.8125,2.23582 -3.39844,2.72617l-44.04053,-21.46731c-1.2627,-0.62206 -9.82031,-4.66107 -9.94482,-4.89914c-8.17236,-15.57017 -15.62402,-32.03665 -23.58691,-47.70117c-0.44531,-0.89823 -0.75293,-1.5868 -1.12793,-2.51667c0.82471,-1.0796 1.68896,-2.15803 2.2749,-3.38237c0.17432,-0.20467 0.50098,-0.90731 0.63867,-1.17908z" fill="#ffffff"/><path d="M159.25049,71.09165c-0.01318,0.26547 0.03369,0.14519 -0.1626,0.35235c-1.82373,-0.9832 -11.27344,-4.85973 -11.86816,-5.86652l0.26367,-0.20438c1.53809,0.78952 3.64307,1.92948 5.20166,2.52971c2.18701,1.07242 4.46777,1.99247 6.56543,3.18884z" fill="#326f45"/><path d="M241.0459,98.91627l0.19336,-0.01597c0.3457,0.83874 0.28564,1.12941 0.5127,1.93358l0.29443,-0.13156c0.39844,1.21893 1.64648,5.27874 1.45752,6.37621l-0.25635,0.3125c-0.56104,-1.73477 -1.84131,-6.71581 -2.20166,-8.47476z" fill="#48a769"/><path d="M168.31934,29.69535c1.0957,-0.56786 5.64258,0.76476 6.76172,1.45304l0.00293,0.21302c-1.95996,-0.38443 -4.60107,-1.20222 -6.76465,-1.66606z" fill="#326f45"/><path d="M246.45117,92.86281c0.3501,0.42897 0.35303,3.20818 0.34717,3.88049l-0.22852,-0.15823c-0.38232,-0.63935 -0.16553,-2.87664 -0.11865,-3.72227z" fill="#48a769"/><path d="M143.37407,63.45549c1.28628,-0.52229 1.4335,-0.19925 2.77485,0.27484c1.49707,0.52888 5.65283,2.87927 6.53613,4.17248c-1.55859,-0.60023 -3.66357,-1.74019 -5.20166,-2.52971c-1.31982,-0.74146 -2.69341,-1.38257 -4.10933,-1.91761z" fill="#d3f9e1"/><path d="M80.35005,177.91336c0.13052,1.45626 -0.05581,4.01279 -1.82168,4.65155c-0.16011,0.05714 -0.55986,0.32671 -0.71104,0.42633c0.6498,-1.4841 1.78022,-3.5762 2.53271,-5.07788z" fill="#d3f9e1"/><path d="M80.89849,27.96907c11.70146,-0.10182 23.40352,-0.10167 35.10483,0.00044l14.18115,-0.00073c2.51016,-0.00161 5.02104,-0.01729 7.53091,0.01304c1.29067,0.01553 1.25669,0.02989 1.80015,1.18113c0.34219,0.84255 0.64146,1.49304 1.0437,2.30966l1.72471,2.07466l-0.68643,1.54593l-1.19795,2.39214l-27.76377,55.97785c-1.98281,-0.01714 -3.25635,-0.0463 -5.22642,0.30605c-2.42446,-2.81891 -4.96934,-6.74907 -7.14463,-9.82217l-15.7667,-22.63012l-12.09756,-17.02702c-0.7708,-1.09103 -3.6019,-4.76289 -4.05278,-5.77071c-0.02988,-1.10714 -0.93267,-1.07315 -0.42202,-2.22981l0.33809,-0.03355c0.55122,0.26122 0.85781,0.48039 1.48433,0.42765c0.99082,0.28964 4.81992,2.29721 5.90786,2.84675l9.93076,4.92273l36.16406,17.59853c1.4877,-2.84338 2.58164,-4.9428 3.79468,-7.88742c-5.42109,-2.04859 -13.47642,-6.30003 -18.83145,-8.94328l-28.74419,-13.91627c-0.60703,-0.99126 -2.46826,-1.59779 -2.26289,-2.45441c1.14595,-0.94584 3.69316,-0.76491 5.19155,-0.88108z" fill="#ffffff"/><path d="M140.55923,31.47261l1.72471,2.07466l-0.68643,1.54593l-1.19795,2.39214c-0.22954,-0.79201 0.30103,-1.16941 0.40005,-2.06631l-0.17842,0.15442l0.21064,-0.20745l-0.05127,0.1613l-0.11748,-0.02256l-0.7084,1.04327c0.49028,-1.11842 0.82764,-1.91453 1.21069,-3.08423c-0.28184,-0.72681 -0.49761,-1.20735 -0.60615,-1.99116z" fill="#d3f9e1"/><path d="M250.16455,144.4348l-0.15967,-0.34649c-0.63135,-0.29228 -1.4502,-1.12106 -2.16504,-1.24486c-1.21289,-0.20994 -2.7041,-2.62904 -3.54492,-2.72881c-0.43506,0.28158 -0.58008,0.40816 -0.97119,0.75641l-0.2417,-0.10563c-0.10107,-0.41578 0.29736,-2.22908 0.58154,-2.50598c0.53174,-0.12087 0.2915,-0.15456 0.75146,0.04791c0.04541,0.37476 0.08496,0.77692 0.16406,1.14362c0.35742,-0.58397 0.57129,-0.88445 0.99756,-1.42081c0.23145,-0.09069 5.3335,0.18753 5.84766,0.26972z" fill="#48a769"/><path d="M70.60386,27.85407c2.34624,-0.14343 7.88555,-0.10944 10.29463,0.11501c-1.49839,0.11618 -4.04561,-0.06476 -5.19155,0.88108c-0.20537,0.85662 1.65586,1.46315 2.26289,2.45441c-1.96758,-0.82585 -5.54678,-2.44474 -7.36597,-3.4505z" fill="#d3f9e1"/><path d="M65.62983,34.75169c1.24658,0.50207 2.99897,1.21453 4.11826,1.93182c-0.62651,0.05274 -0.93311,-0.16643 -1.48433,-0.42765l-0.33809,0.03355c-0.51064,1.15666 0.39214,1.12267 0.42202,2.22981c-0.2814,-0.29272 -2.13926,-3.04204 -2.71787,-3.76754z" fill="#d3f9e1"/><path d="M146.85205,43.08449c-0.00146,-0.67158 0.09229,-1.9724 0.7207,-2.3731c0.51563,-0.32817 0.17432,-0.38575 0.75732,-0.54236c-0.20068,0.75875 -1.04736,2.19509 -1.47803,2.91546z" fill="#48a769"/><path d="M56.57021,36.68058c1.07563,1.19885 2.03101,2.82463 2.98257,4.16603l7.90649,11.31491l19.84849,28.07558c4.18784,5.97464 8.66953,12.62643 13.06187,18.42043c-3.34761,5.09414 -3.75703,11.13295 -0.32402,16.30225c0.43608,0.48991 0.84888,0.96518 1.31733,1.42608l-1.69248,3.39043l-29.08315,58.71428l-9.09551,18.29561c-1.6043,3.25535 -3.23291,6.84767 -4.90591,10.02244c-0.31978,-27.09326 -0.07793,-54.63044 -0.06768,-81.75505z" fill="#ffffff"/><path d="M100.04561,114.95979c0.43608,0.48991 0.84888,0.96518 1.31733,1.42608l-1.69248,3.39043c-0.24521,-2.61351 0.24902,-2.54861 0.37515,-4.81652z" fill="#d3f9e1"/><path d="M144.7856,179.43262c0.35698,0.11427 1.44551,1.07242 1.85405,1.3332c5.96631,3.81354 11.73633,2.83635 17.01709,-1.25848c6.33691,3.79889 13.3374,7.38095 19.76074,11.07289c6.60059,3.79449 13.21436,7.6637 19.92188,11.26188c-10.56006,6.51217 -19.31836,11.17398 -31.51172,14.06453c-9.13037,2.16389 -15.00732,2.43639 -24.32373,2.44811l-14.60596,-0.0044l-36.06328,0.02344c-8.85835,-0.07179 -17.71714,-0.06593 -26.57534,0.01758c2.52539,-1.52073 5.37891,-2.78067 7.99468,-4.15783c22.12441,-11.64279 44.53389,-22.92372 66.53159,-34.80092z" fill="#ffffff"/><path d="M239.7334,129.61386c1.32275,1.13263 2.75977,1.74092 3.99756,2.78785c-0.20215,2.02983 -0.95215,8.20123 -1.66553,10.10815c-0.47021,2.86199 -1.9541,8.10805 -3.01025,10.93268c-2.36426,7.38534 -5.66016,13.14154 -9.13916,19.89105l-7.83545,-15.6966c-1.53662,-3.11324 -3.13184,-6.65282 -4.80469,-9.67815c-2.5752,1.26581 -4.8999,2.39537 -7.44287,3.74175c1.36084,3.22459 3.1333,6.49312 4.69482,9.63567l7.22021,14.74431c0.78369,1.61889 1.96143,3.74175 2.62939,5.30936c-3.76025,4.81857 -9.03516,10.88536 -13.9043,14.56265c-4.69482,-2.40269 -9.4248,-5.30057 -14.01562,-7.91276c-9.5625,-5.4837 -19.1748,-10.8795 -28.83545,-16.18593c0.07031,-1.4841 0.10254,-2.97113 0.09521,-4.4567l12.36621,-6.52975c1.05176,-0.55379 4.61572,-2.27963 5.39648,-2.84953l-0.04687,-0.10109c0.48926,-1.05777 1.68018,-1.81667 2.83301,-1.37422c1.14258,-0.3648 7.62012,-3.99374 9.03662,-4.72334l30.4541,-15.90786c2.87695,-1.61112 5.61035,-2.98373 8.51074,-4.52219z" fill="#ffffff"/><path d="M239.05518,153.44254c-0.06738,-0.5113 -0.28418,-2.29867 0.04102,-2.63417c0.1377,0.39849 0.05127,0.29448 0.31055,0.58895c0.04834,-0.19046 0.26807,-0.9054 0.22412,-1.03579l-0.25781,-0.05128c-0.36035,-0.93471 1.06494,-5.8088 1.66699,-6.62864c0.13623,0.37505 0.01611,1.03609 -0.02197,1.48044l0.11426,0.09581c0.54785,-0.77838 -0.0293,-1.99892 0.93311,-2.748c-0.47021,2.86199 -1.9541,8.10805 -3.01025,10.93268z" fill="#d3f9e1"/><path d="M185.47998,158.01791l-0.04687,-0.10109c0.48926,-1.05777 1.68018,-1.81667 2.83301,-1.37422c-0.95215,0.53768 -1.79004,1.01382 -2.78613,1.47531z" fill="#326f45"/><path d="M228.46875,190.21103c0.4585,0.48493 2.33643,4.41421 2.69678,5.20095c2.61914,5.70932 5.71729,11.31462 8.41113,16.95801c-2.25879,-1.10172 -4.48096,-2.38511 -6.67529,-3.61869c-4.75195,-2.76309 -9.89355,-5.2991 -14.52246,-8.24386c3.53174,-3.06636 7.00488,-6.78174 10.08984,-10.29641z" fill="#ffffff"/><path d="M227.75684,135.9114c0.03223,-0.34883 -0.17285,-0.67891 -0.17432,-1.03843c0,-0.27631 1.75049,-2.42657 1.75781,-2.42935c0.62549,-0.22576 0.98291,-0.1361 1.46631,-0.60258c0.13916,-1.05748 -3.52734,-2.64574 -4.10156,-3.97132l0.24609,-0.42941c1.19824,-0.40201 2.04346,-1.24486 3.58154,-1.64731c0.52881,0.22533 1.45166,1.1949 1.91455,1.63705c0.30469,-0.11515 0.14795,-0.07252 0.46875,-0.12819c0.02344,0.08336 0.23438,0.83039 0.23291,0.82864c0.73389,0.79948 2.87109,1.58314 3.14648,2.5656c-0.20068,0.23324 -0.23437,0.2558 -0.37207,0.52727l0.34424,0.16584c-2.90039,1.53845 -5.63379,2.91106 -8.51074,4.52219z" fill="#48a769"/></g></svg></svg>